<svg width="80" height="80" viewBox="0 0 80 80" fill="none" xmlns="http://www.w3.org/2000/svg">
<g clip-path="url(#clip0_4749_71891)">
<path d="M68.7337 28.1654C65.2337 12.7654 51.8003 5.83203 40.0003 5.83203C40.0003 5.83203 40.0003 5.83203 39.967 5.83203C28.2003 5.83203 14.7337 12.732 11.2337 28.132C7.33365 45.332 17.867 59.8987 27.4003 69.0654C30.9336 72.4654 35.467 74.1654 40.0003 74.1654C44.5336 74.1654 49.067 72.4654 52.567 69.0654C62.1003 59.8987 72.6336 45.3654 68.7337 28.1654ZM40.0003 44.8654C34.2003 44.8654 29.5003 40.1654 29.5003 34.3654C29.5003 28.5654 34.2003 23.8654 40.0003 23.8654C45.8003 23.8654 50.5003 28.5654 50.5003 34.3654C50.5003 40.1654 45.8003 44.8654 40.0003 44.8654Z" fill="#F14D4D"/>
</g>
<defs>
<clipPath id="clip0_4749_71891">
<rect width="80" height="80" fill="white"/>
</clipPath>
</defs>
</svg>
