<svg width="134" height="134" viewBox="0 0 134 134" fill="none" xmlns="http://www.w3.org/2000/svg">
<g clip-path="url(#clip0_4749_71361)">
<path d="M83.1742 87.756C81.6824 87.6775 80.2691 88.3056 79.4842 89.5621L67 109.034L54.5158 89.5621C53.7309 88.3056 52.3176 87.5992 50.8258 87.756C24.8371 90.5043 8.11328 99.3765 8.11328 110.447C8.11328 125.758 38.4203 134.002 67 134.002C95.5797 134.002 125.887 125.758 125.887 110.447C125.887 99.3765 109.163 90.5043 83.1742 87.756Z" fill="#FFD3E2"/>
<path d="M125.887 110.444C125.887 125.754 95.5797 133.998 67 133.998V109.03L79.4842 89.5588C80.2691 88.3023 81.6824 87.6739 83.1742 87.7527C109.163 90.501 125.887 99.3733 125.887 110.444Z" fill="#FFD3E2"/>
<path d="M67 0C43.4453 0 23.8164 19.0005 23.8164 43.1836C23.8164 52.3697 26.5642 60.6138 31.9038 68.3086L63.7026 118.454C64.4875 119.71 65.744 120.259 67.0003 120.259C68.2563 120.259 69.5128 119.71 70.2977 118.454L102.254 68.1516C107.436 60.7711 110.184 52.1344 110.184 43.1836C110.184 19.3931 90.7905 0 67 0ZM67 62.8125C56.1766 62.8125 47.3711 54.007 47.3711 43.1836C47.3711 32.3602 56.1766 23.5547 67 23.5547C77.8234 23.5547 86.6289 32.3602 86.6289 43.1836C86.6289 54.007 77.8234 62.8125 67 62.8125Z" fill="#DD6F94"/>
<path d="M67 0V23.5547C77.8234 23.5547 86.6289 32.3602 86.6289 43.1836C86.6289 54.007 77.8234 62.8125 67 62.8125V120.26C68.256 120.26 69.5125 119.71 70.2974 118.454L102.254 68.1516C107.436 60.7711 110.184 52.1344 110.184 43.1836C110.184 19.3931 90.7905 0 67 0Z" fill="#DD6F94"/>
</g>
<defs>
<clipPath id="clip0_4749_71361">
<rect width="134" height="134" fill="white"/>
</clipPath>
</defs>
</svg>
