<svg width="71" height="79" viewBox="0 0 71 79" fill="none" xmlns="http://www.w3.org/2000/svg">
<g filter="url(#filter0_d_4749_71436)">
<path d="M33 5.5C44.1621 5.5 53.2109 14.5488 53.2109 25.7109C53.2108 34.2844 47.872 41.6103 40.3378 44.5473C39.7642 44.7709 39.2696 45.1673 38.9617 45.7005L35.1877 52.2372C34.2154 53.9213 31.7845 53.9214 30.812 52.2373L27.0373 45.7003C26.7294 45.1672 26.2349 44.7709 25.6613 44.5473C18.1276 41.6101 12.7892 34.2841 12.7891 25.7109C12.7891 14.5488 21.8379 5.5 33 5.5Z" fill="white"/>
</g>
<path d="M40.5792 16.7073C40.8411 16.7073 41.0529 16.495 41.0529 16.2336C41.0529 15.9726 41.2651 15.7599 41.5265 15.7599C41.7885 15.7599 42.0002 15.5477 42.0002 15.2862C42.0002 15.0247 41.7885 14.8125 41.5265 14.8125C40.7431 14.8125 40.1055 15.4501 40.1055 16.2336C40.1055 16.495 40.3172 16.7073 40.5792 16.7073Z" fill="#224674"/>
<path d="M33.0002 34.7109C32.2167 34.7109 31.5791 35.3485 31.5791 36.132C31.5791 36.3935 31.7908 36.6057 32.0528 36.6057C32.3147 36.6057 32.5265 36.3935 32.5265 36.132C32.5265 35.871 32.7387 35.6583 33.0002 35.6583C33.2621 35.6583 33.4739 35.4461 33.4739 35.1846C33.4739 34.9232 33.2621 34.7109 33.0002 34.7109Z" fill="#224674"/>
<path d="M41.5264 31.3919C41.7884 31.3919 42.0001 31.1797 42.0001 30.9182C42.0001 30.3957 42.425 29.9708 42.9475 29.9708C43.2094 29.9708 43.4212 29.7586 43.4212 29.4971C43.4212 29.2357 43.2094 29.0234 42.9475 29.0234C41.9025 29.0234 41.0527 29.8732 41.0527 30.9182C41.0527 31.1797 41.2645 31.3919 41.5264 31.3919Z" fill="#224674"/>
<path d="M23.0521 34.234C24.62 34.234 25.8942 32.9598 25.8942 31.3919C25.8942 30.9443 25.7886 30.5227 25.6039 30.1466C25.6148 30.1395 25.628 30.1366 25.6389 30.1286L29.4237 27.4238C29.4318 27.4181 29.4351 27.4096 29.4422 27.4039C30.2124 28.285 31.3028 28.8733 32.5311 28.9946C32.5311 29.0045 32.5259 29.0135 32.5259 29.0235V33.7604C32.5259 33.7769 32.534 33.7911 32.5354 33.8073C31.4502 34.0233 30.6312 34.9806 30.6312 36.1288C30.6312 37.4362 31.6922 38.4973 32.9996 38.4973C34.307 38.4973 35.3681 37.4362 35.3681 36.1288C35.3681 34.9806 34.5491 34.0233 33.4638 33.8073C33.4652 33.7911 33.4733 33.7769 33.4733 33.7604V29.0235C33.4733 29.013 33.4676 29.004 33.4671 28.9936C34.7504 28.8667 35.8796 28.231 36.6565 27.2878C36.665 27.294 36.6688 27.3035 36.6778 27.3092L40.32 29.7345C40.3319 29.7425 40.3456 29.7454 40.3579 29.752C40.1973 30.1091 40.105 30.5033 40.105 30.9182C40.105 32.4861 41.3792 33.7604 42.9471 33.7604C44.515 33.7604 45.7893 32.4861 45.7893 30.9182C45.7893 29.3503 44.515 28.0761 42.9471 28.0761C42.13 28.0761 41.3948 28.4247 40.8771 28.9775C40.8657 28.968 40.8586 28.9548 40.8463 28.9462L37.2041 26.5209C37.196 26.5157 37.1875 26.5157 37.1795 26.511C37.5328 25.8464 37.7365 25.0899 37.7365 24.2865C37.7365 23.1956 37.3661 22.1943 36.7474 21.3951C36.7541 21.3895 36.7621 21.3876 36.7688 21.3814L40.1277 18.2029C40.1391 18.192 40.1438 18.1774 40.1542 18.1655C40.5417 18.4407 41.0163 18.6023 41.526 18.6023C42.8334 18.6023 43.8945 17.5412 43.8945 16.2338C43.8945 14.9264 42.8334 13.8654 41.526 13.8654C40.2187 13.8654 39.1576 14.9264 39.1576 16.2338C39.1576 16.6961 39.2921 17.1234 39.52 17.4872C39.5062 17.4976 39.4896 17.5019 39.4764 17.5142L36.1174 20.6927C36.1118 20.6983 36.1094 20.7054 36.1047 20.7116C35.2738 19.9887 34.1857 19.5496 32.9996 19.5496C31.8613 19.5496 30.8164 19.9527 29.9988 20.623C29.9931 20.6169 29.9912 20.6088 29.9855 20.6027L26.817 17.4337C26.8071 17.4237 26.7938 17.4204 26.7838 17.4114C27.1173 16.9472 27.3153 16.3778 27.3153 15.7601C27.3153 14.1922 26.0411 12.918 24.4732 12.918C22.9053 12.918 21.631 14.1922 21.631 15.7601C21.631 17.328 22.9053 18.6023 24.4732 18.6023C25.0909 18.6023 25.6602 18.4043 26.1245 18.0698C26.1335 18.0802 26.1368 18.0935 26.1467 18.1035L29.3152 21.2725C29.3214 21.2786 29.329 21.2805 29.3356 21.2857C28.6658 22.1033 28.2627 23.1483 28.2627 24.2865C28.2627 25.1463 28.4939 25.9487 28.896 26.6432C28.8889 26.6479 28.8804 26.6484 28.8733 26.6531L25.0885 29.3579C25.0767 29.3664 25.07 29.3797 25.0587 29.3891C24.5457 28.8742 23.8356 28.5498 23.0521 28.5498C21.4842 28.5498 20.21 29.824 20.21 31.3919C20.21 32.9598 21.4842 34.234 23.0521 34.234Z" fill="#224674"/>
<defs>
<filter id="filter0_d_4749_71436" x="0.157311" y="0.447299" width="70.7381" height="78.3162" filterUnits="userSpaceOnUse" color-interpolation-filters="sRGB">
<feFlood flood-opacity="0" result="BackgroundImageFix"/>
<feColorMatrix in="SourceAlpha" type="matrix" values="0 0 0 0 0 0 0 0 0 0 0 0 0 0 0 0 0 0 127 0" result="hardAlpha"/>
<feOffset dx="2.52635" dy="10.1054"/>
<feGaussianBlur stdDeviation="7.57905"/>
<feComposite in2="hardAlpha" operator="out"/>
<feColorMatrix type="matrix" values="0 0 0 0 0 0 0 0 0 0 0 0 0 0 0 0 0 0 0.16 0"/>
<feBlend mode="normal" in2="BackgroundImageFix" result="effect1_dropShadow_4749_71436"/>
<feBlend mode="normal" in="SourceGraphic" in2="effect1_dropShadow_4749_71436" result="shape"/>
</filter>
</defs>
</svg>
