<svg width="42" height="49" viewBox="0 0 42 49" fill="none" xmlns="http://www.w3.org/2000/svg">
<path d="M21 0.5C32.1621 0.5 41.2109 9.54882 41.2109 20.7109C41.2108 29.2844 35.872 36.6103 28.3378 39.5473C27.7642 39.7709 27.2696 40.1673 26.9617 40.7005L23.1877 47.2372C22.2154 48.9213 19.7845 48.9214 18.812 47.2373L15.0373 40.7003C14.7294 40.1672 14.2349 39.7709 13.6613 39.5473C6.12759 36.6101 0.789226 29.2841 0.789062 20.7109C0.789062 9.54882 9.83788 0.5 21 0.5Z" fill="white"/>
<path d="M28.5792 11.7073C28.8411 11.7073 29.0529 11.495 29.0529 11.2336C29.0529 10.9726 29.2651 10.7599 29.5265 10.7599C29.7885 10.7599 30.0002 10.5477 30.0002 10.2862C30.0002 10.0247 29.7885 9.8125 29.5265 9.8125C28.7431 9.8125 28.1055 10.4501 28.1055 11.2336C28.1055 11.495 28.3172 11.7073 28.5792 11.7073Z" fill="#224674"/>
<path d="M21.0002 29.7109C20.2167 29.7109 19.5791 30.3485 19.5791 31.132C19.5791 31.3935 19.7908 31.6057 20.0528 31.6057C20.3147 31.6057 20.5265 31.3935 20.5265 31.132C20.5265 30.871 20.7387 30.6583 21.0002 30.6583C21.2621 30.6583 21.4739 30.4461 21.4739 30.1846C21.4739 29.9232 21.2621 29.7109 21.0002 29.7109Z" fill="#224674"/>
<path d="M29.5264 26.3919C29.7884 26.3919 30.0001 26.1797 30.0001 25.9182C30.0001 25.3957 30.425 24.9708 30.9475 24.9708C31.2094 24.9708 31.4212 24.7586 31.4212 24.4971C31.4212 24.2357 31.2094 24.0234 30.9475 24.0234C29.9025 24.0234 29.0527 24.8732 29.0527 25.9182C29.0527 26.1797 29.2645 26.3919 29.5264 26.3919Z" fill="#224674"/>
<path d="M11.0521 29.234C12.62 29.234 13.8942 27.9598 13.8942 26.3919C13.8942 25.9443 13.7886 25.5227 13.6039 25.1466C13.6148 25.1395 13.628 25.1366 13.6389 25.1286L17.4237 22.4238C17.4318 22.4181 17.4351 22.4096 17.4422 22.4039C18.2124 23.285 19.3028 23.8733 20.5311 23.9946C20.5311 24.0045 20.5259 24.0135 20.5259 24.0235V28.7604C20.5259 28.7769 20.534 28.7911 20.5354 28.8073C19.4502 29.0233 18.6312 29.9806 18.6312 31.1288C18.6312 32.4362 19.6922 33.4973 20.9996 33.4973C22.307 33.4973 23.3681 32.4362 23.3681 31.1288C23.3681 29.9806 22.5491 29.0233 21.4638 28.8073C21.4652 28.7911 21.4733 28.7769 21.4733 28.7604V24.0235C21.4733 24.013 21.4676 24.004 21.4671 23.9936C22.7504 23.8667 23.8796 23.231 24.6565 22.2878C24.665 22.294 24.6688 22.3035 24.6778 22.3092L28.32 24.7345C28.3319 24.7425 28.3456 24.7454 28.3579 24.752C28.1973 25.1091 28.105 25.5033 28.105 25.9182C28.105 27.4861 29.3792 28.7604 30.9471 28.7604C32.515 28.7604 33.7893 27.4861 33.7893 25.9182C33.7893 24.3503 32.515 23.0761 30.9471 23.0761C30.13 23.0761 29.3948 23.4247 28.8771 23.9775C28.8657 23.968 28.8586 23.9548 28.8463 23.9462L25.2041 21.5209C25.196 21.5157 25.1875 21.5157 25.1795 21.511C25.5328 20.8464 25.7365 20.0899 25.7365 19.2865C25.7365 18.1956 25.3661 17.1943 24.7474 16.3951C24.7541 16.3895 24.7621 16.3876 24.7688 16.3814L28.1277 13.2029C28.1391 13.192 28.1438 13.1774 28.1542 13.1655C28.5417 13.4407 29.0163 13.6023 29.526 13.6023C30.8334 13.6023 31.8945 12.5412 31.8945 11.2338C31.8945 9.92642 30.8334 8.86535 29.526 8.86535C28.2187 8.86535 27.1576 9.92642 27.1576 11.2338C27.1576 11.6961 27.2921 12.1234 27.52 12.4872C27.5062 12.4976 27.4896 12.5019 27.4764 12.5142L24.1174 15.6927C24.1118 15.6983 24.1094 15.7054 24.1047 15.7116C23.2738 14.9887 22.1857 14.5496 20.9996 14.5496C19.8613 14.5496 18.8164 14.9527 17.9988 15.623C17.9931 15.6169 17.9912 15.6088 17.9855 15.6027L14.817 12.4337C14.8071 12.4237 14.7938 12.4204 14.7838 12.4114C15.1173 11.9472 15.3153 11.3778 15.3153 10.7601C15.3153 9.1922 14.0411 7.91797 12.4732 7.91797C10.9053 7.91797 9.63103 9.1922 9.63103 10.7601C9.63103 12.328 10.9053 13.6023 12.4732 13.6023C13.0909 13.6023 13.6602 13.4043 14.1245 13.0698C14.1335 13.0802 14.1368 13.0935 14.1467 13.1035L17.3152 16.2725C17.3214 16.2786 17.329 16.2805 17.3356 16.2857C16.6658 17.1033 16.2627 18.1483 16.2627 19.2865C16.2627 20.1463 16.4939 20.9487 16.896 21.6432C16.8889 21.6479 16.8804 21.6484 16.8733 21.6531L13.0885 24.3579C13.0767 24.3664 13.07 24.3797 13.0587 24.3891C12.5457 23.8742 11.8356 23.5498 11.0521 23.5498C9.48419 23.5498 8.20996 24.824 8.20996 26.3919C8.20996 27.9598 9.48419 29.234 11.0521 29.234Z" fill="#224674"/>
</svg>
