<svg width="40" height="40" viewBox="0 0 40 40" fill="none" xmlns="http://www.w3.org/2000/svg">
<rect width="40" height="40" rx="20" fill="#F2F5F7"/>
<path d="M17.5714 26.8211C17.3814 26.8211 17.1914 26.7511 17.0414 26.6011L10.9714 20.5311C10.6814 20.2411 10.6814 19.7611 10.9714 19.4711L17.0414 13.4011C17.3314 13.1111 17.8114 13.1111 18.1014 13.4011C18.3914 13.6911 18.3914 14.1711 18.1014 14.4611L12.5614 20.0011L18.1014 25.5411C18.3914 25.8311 18.3914 26.3111 18.1014 26.6011C17.9614 26.7511 17.7614 26.8211 17.5714 26.8211Z" fill="#25292A"/>
<path d="M28.5019 20.75H11.6719C11.2619 20.75 10.9219 20.41 10.9219 20C10.9219 19.59 11.2619 19.25 11.6719 19.25H28.5019C28.9119 19.25 29.2519 19.59 29.2519 20C29.2519 20.41 28.9119 20.75 28.5019 20.75Z" fill="#25292A"/>
</svg>
