<svg width="44" height="44" viewBox="0 0 44 44" fill="none" xmlns="http://www.w3.org/2000/svg">
<path d="M22.2199 24.8052C22.1832 24.8052 22.1282 24.8052 22.0916 24.8052C22.0366 24.8052 21.9632 24.8052 21.9082 24.8052C17.7465 24.6769 14.6299 21.4319 14.6299 17.4352C14.6299 13.3652 17.9482 10.0469 22.0182 10.0469C26.0882 10.0469 29.4066 13.3652 29.4066 17.4352C29.3882 21.4502 26.2532 24.6769 22.2749 24.8052C22.2382 24.8052 22.2382 24.8052 22.2199 24.8052ZM21.9999 12.7785C19.4332 12.7785 17.3616 14.8685 17.3616 17.4169C17.3616 19.9285 19.3232 21.9635 21.8165 22.0552C21.8715 22.0369 22.0549 22.0369 22.2382 22.0552C24.6949 21.9269 26.6199 19.9102 26.6382 17.4169C26.6382 14.8685 24.5666 12.7785 21.9999 12.7785Z" fill="#DD6F94"/>
<path d="M21.9999 41.7089C17.0682 41.7089 12.3565 39.8756 8.70819 36.5389C8.37819 36.2456 8.23153 35.8056 8.2682 35.3839C8.50653 33.2022 9.8632 31.1672 12.1182 29.6639C17.5815 26.0339 26.4365 26.0339 31.8815 29.6639C34.1365 31.1856 35.4932 33.2022 35.7315 35.3839C35.7865 35.8239 35.6215 36.2456 35.2915 36.5389C31.6432 39.8756 26.9315 41.7089 21.9999 41.7089ZM11.1465 35.0172C14.1899 37.5656 18.0215 38.9589 21.9999 38.9589C25.9782 38.9589 29.8099 37.5656 32.8532 35.0172C32.5232 33.8989 31.6432 32.8172 30.3415 31.9372C25.8315 28.9306 18.1865 28.9306 13.6399 31.9372C12.3382 32.8172 11.4765 33.8989 11.1465 35.0172Z" fill="#DD6F94"/>
<path d="M22.0003 41.7096C11.1287 41.7096 2.29199 32.873 2.29199 22.0013C2.29199 11.1296 11.1287 2.29297 22.0003 2.29297C32.872 2.29297 41.7087 11.1296 41.7087 22.0013C41.7087 32.873 32.872 41.7096 22.0003 41.7096ZM22.0003 5.04297C12.6503 5.04297 5.04199 12.6513 5.04199 22.0013C5.04199 31.3513 12.6503 38.9596 22.0003 38.9596C31.3503 38.9596 38.9587 31.3513 38.9587 22.0013C38.9587 12.6513 31.3503 5.04297 22.0003 5.04297Z" fill="#DD6F94"/>
</svg>
