<svg width="24" height="24" viewBox="0 0 24 24" fill="none" xmlns="http://www.w3.org/2000/svg">
<path d="M18 4.875C18.2074 4.875 18.375 4.707 18.375 4.5C18.375 4.29338 18.543 4.125 18.75 4.125C18.9574 4.125 19.125 3.957 19.125 3.75C19.125 3.543 18.9574 3.375 18.75 3.375C18.1298 3.375 17.625 3.87975 17.625 4.5C17.625 4.707 17.7926 4.875 18 4.875Z" fill="#DD6F94"/>
<path d="M12 19.125C11.3798 19.125 10.875 19.6298 10.875 20.25C10.875 20.457 11.0426 20.625 11.25 20.625C11.4574 20.625 11.625 20.457 11.625 20.25C11.625 20.0434 11.793 19.875 12 19.875C12.2074 19.875 12.375 19.707 12.375 19.5C12.375 19.293 12.2074 19.125 12 19.125Z" fill="#DD6F94"/>
<path d="M18.75 16.5C18.9574 16.5 19.125 16.332 19.125 16.125C19.125 15.7114 19.4614 15.375 19.875 15.375C20.0824 15.375 20.25 15.207 20.25 15C20.25 14.793 20.0824 14.625 19.875 14.625C19.0477 14.625 18.375 15.2977 18.375 16.125C18.375 16.332 18.5426 16.5 18.75 16.5Z" fill="#DD6F94"/>
<path d="M8.47559 12.043C8.48373 12.0398 8.49053 12.0377 8.49512 12.0361C8.49849 12.0349 8.50134 12.0337 8.50293 12.0332H8.50488C8.50422 12.0334 8.50262 12.0336 8.50098 12.0342C8.49871 12.0349 8.49539 12.0366 8.49121 12.0381C8.48721 12.0395 8.48155 12.0407 8.47559 12.043ZM8.47559 12.043C8.47136 12.0446 8.46686 12.0468 8.46191 12.0488C8.46073 12.0493 8.45924 12.0493 8.45801 12.0498C8.46443 12.0472 8.47035 12.0449 8.47559 12.043ZM12.2207 19.1475C12.7365 19.2501 13.125 19.7064 13.125 20.25C13.125 20.8708 12.6208 21.375 12 21.375C11.3792 21.375 10.875 20.8708 10.875 20.25C10.875 19.7064 11.2635 19.2501 11.7793 19.1475L12 19.1035L12.2207 19.1475ZM4.125 15C4.53395 15 4.90859 15.1693 5.18262 15.4443L5.36426 15.627L5.47168 15.8447C5.56966 16.0442 5.625 16.2653 5.625 16.5C5.625 17.327 4.95204 18 4.125 18C3.29796 18 2.625 17.327 2.625 16.5C2.625 15.673 3.29796 15 4.125 15ZM19.875 14.625C20.702 14.625 21.375 15.298 21.375 16.125C21.375 16.952 20.702 17.625 19.875 17.625C19.048 17.625 18.375 16.952 18.375 16.125C18.375 15.9092 18.4234 15.7019 18.5098 15.5098L18.6094 15.2861L18.7832 15.1016C19.0589 14.8072 19.4465 14.625 19.875 14.625ZM10.9023 14.418V14.4189C10.9017 14.4213 10.9015 14.4253 10.9004 14.4297C10.9002 14.4306 10.8997 14.4316 10.8994 14.4326C10.9002 14.4292 10.9008 14.4261 10.9014 14.4238C10.902 14.4215 10.902 14.4194 10.9023 14.418ZM12 7.875C12.7508 7.875 13.4391 8.15219 13.9658 8.61035L14.1865 8.80273L14.374 9.04492C14.7663 9.55169 15 10.1845 15 10.875C15 11.3826 14.8713 11.8614 14.6465 12.2842L14.5127 12.5352L14.3164 12.7744C13.8229 13.3735 13.1073 13.7752 12.2959 13.8555L11.9961 13.8848L11.7031 13.8555C10.9261 13.7788 10.2359 13.4077 9.74805 12.8496L9.54883 12.6211L9.40039 12.3652C9.14573 11.9255 9 11.4189 9 10.875C9 10.1542 9.25475 9.49331 9.67969 8.97461L9.86914 8.74316L10.0996 8.55469C10.6182 8.12952 11.2792 7.875 12 7.875ZM9.77051 13.8096C9.76827 13.8124 9.76345 13.8174 9.75781 13.8242C9.76466 13.8158 9.76983 13.8088 9.77148 13.8066L9.77344 13.8057C9.77324 13.8059 9.77207 13.8076 9.77051 13.8096ZM15.54 11.9229C15.5432 11.9238 15.5478 11.9258 15.5537 11.9277C15.5439 11.9245 15.5359 11.9224 15.5342 11.9219C15.5356 11.9223 15.5381 11.9222 15.54 11.9229ZM8.7334 9.15332C8.73026 9.1516 8.72543 9.14881 8.71973 9.14551C8.71786 9.14443 8.71605 9.14289 8.71387 9.1416C8.72368 9.14727 8.73022 9.1516 8.7334 9.15332ZM10.2588 7.5752C10.2651 7.58536 10.2699 7.59431 10.2734 7.60059C10.2698 7.59405 10.2638 7.58474 10.2568 7.57324L10.2588 7.5752ZM5.25 2.625C6.07704 2.625 6.75 3.29796 6.75 4.125C6.75 4.45083 6.64578 4.75004 6.46973 4.99512L6.3252 5.19531L6.11914 5.34473C5.87447 5.52099 5.57578 5.625 5.25 5.625C4.42296 5.625 3.75 4.95204 3.75 4.125C3.75 3.29796 4.42296 2.625 5.25 2.625ZM18.75 3.375C19.3708 3.375 19.875 3.87921 19.875 4.5C19.875 5.12079 19.3708 5.625 18.75 5.625C18.507 5.625 18.2824 5.54837 18.0986 5.41797L17.9219 5.29199L17.7979 5.09375C17.688 4.91823 17.625 4.71724 17.625 4.5C17.625 3.87921 18.1292 3.375 18.75 3.375Z" stroke="#DD6F94" stroke-width="1.5"/>
</svg>
