<svg width="24" height="24" viewBox="0 0 24 24" fill="none" xmlns="http://www.w3.org/2000/svg">
<path d="M17.2174 4.64298C17.4002 4.64298 17.5481 4.49484 17.5481 4.31231C17.5481 4.13012 17.6962 3.98165 17.8787 3.98165C18.0616 3.98165 18.2094 3.83351 18.2094 3.65098C18.2094 3.46845 18.0616 3.32031 17.8787 3.32031C17.3318 3.32031 16.8867 3.76539 16.8867 4.31231C16.8867 4.49484 17.0345 4.64298 17.2174 4.64298Z" fill="#DD6F94"/>
<path d="M5.97559 2C7.07006 2.00004 7.95996 2.88989 7.95996 3.98438L7.95312 4.14355C7.92356 4.51308 7.79263 4.85307 7.58887 5.13672C7.59581 5.14298 7.60537 5.14541 7.6123 5.15234L9.82422 7.36426C9.82813 7.36855 9.82906 7.37463 9.83301 7.37891C10.4037 6.91108 11.1333 6.62897 11.9277 6.62891C12.7557 6.62892 13.5157 6.93585 14.0957 7.44043C14.0989 7.43616 14.1006 7.43068 14.1045 7.42676L16.4492 5.20801C16.4584 5.1996 16.47 5.19665 16.4795 5.18945C16.3205 4.93554 16.2266 4.63711 16.2266 4.31445C16.2267 3.40195 16.9674 2.6612 17.8799 2.66113C18.7924 2.66117 19.5331 3.40193 19.5332 4.31445C19.5332 5.22707 18.7925 5.96774 17.8799 5.96777C17.5243 5.96775 17.1932 5.85504 16.9229 5.66309C16.9156 5.6713 16.9121 5.68186 16.9043 5.68945L14.5596 7.9082C14.555 7.91249 14.5486 7.91403 14.5439 7.91797C14.9757 8.47567 15.2343 9.17425 15.2344 9.93555C15.2344 10.4963 15.0924 11.0253 14.8457 11.4893C14.8513 11.4925 14.8577 11.4925 14.8633 11.4961L15.7178 12.0645C15.4452 12.1374 15.1793 12.2262 14.9199 12.3281L14.4961 12.0459C14.4898 12.0419 14.4864 12.0355 14.4805 12.0312C13.9382 12.6895 13.1496 13.1331 12.2539 13.2217C12.2542 13.2288 12.2586 13.2351 12.2588 13.2422V14.1104C12.021 14.3575 11.8 14.6206 11.5977 14.8984V13.2422C11.5978 13.2355 11.6005 13.2294 11.6006 13.2227C10.7433 13.1379 9.98192 12.7272 9.44434 12.1123C9.4396 12.1163 9.43711 12.1221 9.43164 12.126L6.79004 14.0137C6.78257 14.0192 6.77315 14.0216 6.76562 14.0264C6.89458 14.2889 6.96777 14.584 6.96777 14.8965C6.96751 15.9906 6.07852 16.8796 4.98438 16.8799L4.78125 16.8701C3.84836 16.7751 3.1057 16.0315 3.01074 15.0986L3 14.8965C3 13.802 3.88987 12.9121 4.98438 12.9121L5.18652 12.9229C5.65265 12.9711 6.07144 13.1836 6.38477 13.498C6.39255 13.4915 6.39726 13.4825 6.40527 13.4766L9.04785 11.5879C9.05275 11.5848 9.05862 11.5843 9.06348 11.5811C8.78274 11.0963 8.62109 10.5357 8.62109 9.93555C8.6212 9.14113 8.90264 8.41144 9.37012 7.84082C9.36565 7.83743 9.3606 7.83604 9.35645 7.83203L7.14453 5.62012C7.13769 5.61328 7.13498 5.6039 7.12891 5.59668C6.80488 5.8301 6.40674 5.96776 5.97559 5.96777C4.94962 5.96756 4.1036 5.18603 4.00195 4.18652L3.99219 3.98438C3.99219 2.89001 4.88127 2.00022 5.97559 2ZM4.98438 14.4121C4.7183 14.4121 4.5 14.6304 4.5 14.8965C4.50026 15.1623 4.71846 15.3799 4.98438 15.3799C5.25009 15.3796 5.46751 15.1622 5.46777 14.8965C5.46777 14.8234 5.45135 14.7535 5.41895 14.6875L5.38574 14.6201L5.32227 14.5566C5.22846 14.4625 5.10855 14.4122 4.98438 14.4121ZM11.9277 8.12891C11.4939 8.12897 11.0976 8.28216 10.7842 8.53906L10.6416 8.65527L10.5303 8.79199C10.2736 9.10548 10.1212 9.50183 10.1211 9.93555C10.1211 10.2621 10.2081 10.5644 10.3613 10.8291L10.4512 10.9844L10.5742 11.125C10.8681 11.461 11.2816 11.6834 11.748 11.7295L11.9268 11.7471L12.1064 11.7295C12.5933 11.6813 13.024 11.4405 13.3232 11.0771L13.4424 10.9316L13.5215 10.7842C13.6581 10.527 13.7344 10.2394 13.7344 9.93555C13.7343 9.52052 13.5952 9.14192 13.3584 8.83594L13.2422 8.68652L13.1113 8.57227C12.7934 8.29566 12.3795 8.12892 11.9277 8.12891ZM5.97559 3.5C5.7097 3.50023 5.49219 3.71843 5.49219 3.98438C5.49239 4.25015 5.70982 4.46755 5.97559 4.46777C6.08031 4.46776 6.17357 4.43537 6.25195 4.37891L6.32422 4.32617L6.37109 4.26172C6.42789 4.18262 6.45988 4.08903 6.45996 3.98438C6.45996 3.71832 6.24164 3.50004 5.97559 3.5ZM17.8799 4.16113C17.7958 4.1612 17.7267 4.23038 17.7266 4.31445C17.7266 4.32931 17.7292 4.34152 17.7324 4.35254C17.7358 4.36402 17.7412 4.37802 17.751 4.39355L17.7715 4.42578L17.791 4.44043C17.8155 4.45778 17.845 4.46775 17.8799 4.46777C17.9641 4.46774 18.0332 4.39864 18.0332 4.31445C18.0331 4.23036 17.964 4.16117 17.8799 4.16113Z" fill="#DD6F94"/>
<path d="M17.2533 21.3269C19.1946 21.3269 20.7683 19.7532 20.7683 17.8119C20.7683 15.8706 19.1946 14.2969 17.2533 14.2969C15.312 14.2969 13.7383 15.8706 13.7383 17.8119C13.7383 19.7532 15.312 21.3269 17.2533 21.3269Z" stroke="#DD6F94" stroke-width="1.5" stroke-linecap="round" stroke-linejoin="round"/>
<path d="M21.1384 21.697L20.3984 20.957" stroke="#DD6F94" stroke-width="1.5" stroke-linecap="round" stroke-linejoin="round"/>
</svg>
