<svg width="16" height="17" viewBox="0 0 16 17" fill="none" xmlns="http://www.w3.org/2000/svg">
<path d="M11.333 14.6654H4.66634C2.23301 14.6654 0.833008 13.2654 0.833008 10.832V6.16536C0.833008 3.73203 2.23301 2.33203 4.66634 2.33203H11.333C13.7663 2.33203 15.1663 3.73203 15.1663 6.16536V10.832C15.1663 13.2654 13.7663 14.6654 11.333 14.6654ZM4.66634 3.33203C2.75967 3.33203 1.83301 4.2587 1.83301 6.16536V10.832C1.83301 12.7387 2.75967 13.6654 4.66634 13.6654H11.333C13.2397 13.6654 14.1663 12.7387 14.1663 10.832V6.16536C14.1663 4.2587 13.2397 3.33203 11.333 3.33203H4.66634Z" fill="#DD6F94"/>
<path d="M8.00018 9.07998C7.44018 9.07998 6.87351 8.90665 6.44018 8.55331L4.35351 6.88665C4.14018 6.71331 4.10018 6.39998 4.27351 6.18665C4.44685 5.97331 4.76018 5.93332 4.97352 6.10665L7.06017 7.77332C7.56684 8.17998 8.42684 8.17998 8.93351 7.77332L11.0202 6.10665C11.2335 5.93332 11.5535 5.96665 11.7202 6.18665C11.8935 6.39998 11.8602 6.71998 11.6402 6.88665L9.55351 8.55331C9.12685 8.90665 8.56018 9.07998 8.00018 9.07998Z" fill="#DD6F94"/>
</svg>
