<svg width="16" height="17" viewBox="0 0 16 17" fill="none" xmlns="http://www.w3.org/2000/svg">
<path d="M11.633 15.6654C10.8797 15.6654 10.0863 15.4854 9.26634 15.1387C8.46634 14.7987 7.65968 14.332 6.87301 13.7654C6.09301 13.192 5.33967 12.552 4.62634 11.852C3.91967 11.1387 3.27967 10.3854 2.71301 9.61203C2.13967 8.81203 1.67967 8.01203 1.35301 7.2387C1.00634 6.41203 0.833008 5.61203 0.833008 4.8587C0.833008 4.3387 0.926341 3.84536 1.10634 3.38536C1.29301 2.91203 1.59301 2.47203 1.99967 2.09203C2.51301 1.58536 3.09967 1.33203 3.72634 1.33203C3.98634 1.33203 4.25301 1.39203 4.47967 1.4987C4.73967 1.6187 4.95967 1.7987 5.11967 2.0387L6.66634 4.2187C6.80634 4.41203 6.91301 4.5987 6.98634 4.78536C7.07301 4.98536 7.11967 5.18536 7.11967 5.3787C7.11967 5.63203 7.04634 5.8787 6.90634 6.11203C6.80634 6.29203 6.65301 6.48536 6.45967 6.6787L6.00634 7.15203C6.01301 7.17203 6.01967 7.18536 6.02634 7.1987C6.10634 7.3387 6.26634 7.5787 6.57301 7.9387C6.89967 8.31203 7.20634 8.65203 7.51301 8.96536C7.90634 9.35203 8.23301 9.6587 8.53967 9.91203C8.91967 10.232 9.16634 10.392 9.31301 10.4654L9.29967 10.4987L9.78634 10.0187C9.99301 9.81203 10.193 9.6587 10.3863 9.5587C10.753 9.33203 11.2197 9.29203 11.6863 9.48536C11.8597 9.5587 12.0463 9.6587 12.2463 9.7987L14.4597 11.372C14.7063 11.5387 14.8863 11.752 14.993 12.0054C15.093 12.2587 15.1397 12.492 15.1397 12.7254C15.1397 13.0454 15.0663 13.3654 14.9263 13.6654C14.7863 13.9654 14.613 14.2254 14.393 14.4654C14.013 14.8854 13.5997 15.1854 13.1197 15.3787C12.6597 15.5654 12.1597 15.6654 11.633 15.6654ZM3.72634 2.33203C3.35967 2.33203 3.01967 2.49203 2.69301 2.81203C2.38634 3.0987 2.17301 3.41203 2.03967 3.75203C1.89967 4.0987 1.83301 4.46536 1.83301 4.8587C1.83301 5.4787 1.97967 6.15203 2.27301 6.84537C2.57301 7.55203 2.99301 8.28536 3.52634 9.0187C4.05967 9.75203 4.66634 10.4654 5.33301 11.1387C5.99967 11.7987 6.71967 12.412 7.45967 12.952C8.17967 13.4787 8.91967 13.9054 9.65301 14.212C10.793 14.6987 11.8597 14.812 12.7397 14.4454C13.0797 14.3054 13.3797 14.092 13.653 13.7854C13.8063 13.6187 13.9263 13.4387 14.0263 13.2254C14.1063 13.0587 14.1463 12.8854 14.1463 12.712C14.1463 12.6054 14.1263 12.4987 14.073 12.3787C14.053 12.3387 14.013 12.2654 13.8863 12.1787L11.673 10.6054C11.5397 10.512 11.4197 10.4454 11.3063 10.3987C11.1597 10.3387 11.0997 10.2787 10.873 10.4187C10.7397 10.4854 10.6197 10.5854 10.4863 10.7187L9.97968 11.2187C9.71968 11.472 9.31968 11.532 9.01301 11.4187L8.83301 11.3387C8.55967 11.192 8.23967 10.9654 7.88634 10.6654C7.56634 10.392 7.21967 10.072 6.79967 9.6587C6.47301 9.32536 6.14634 8.97203 5.80634 8.5787C5.49301 8.21203 5.26634 7.8987 5.12634 7.6387L5.04634 7.4387C5.00634 7.28536 4.99301 7.1987 4.99301 7.10536C4.99301 6.86536 5.07967 6.65203 5.24634 6.48536L5.74634 5.96536C5.87967 5.83203 5.97967 5.70536 6.04634 5.59203C6.09967 5.50536 6.11967 5.43203 6.11967 5.36537C6.11967 5.31203 6.09967 5.23203 6.06634 5.15203C6.01967 5.04536 5.94634 4.92536 5.85301 4.7987L4.30634 2.61203C4.23967 2.5187 4.15967 2.45203 4.05967 2.40536C3.95301 2.3587 3.83967 2.33203 3.72634 2.33203ZM9.29967 10.5054L9.19301 10.9587L9.37301 10.492C9.33967 10.4854 9.31301 10.492 9.29967 10.5054Z" fill="#DD6F94"/>
</svg>
